<svg width="1438" height="481" viewBox="0 0 1438 481" fill="none" xmlns="http://www.w3.org/2000/svg">
<path d="M1437.5 480H-1L450.606 327.316C583.358 282.434 682.942 171.354 713.112 34.5076L720.5 1L729.067 38.1964C760.116 173.007 858.62 282.205 989.529 326.935L1437.5 480Z" fill="url(#paint0_linear_2500_2134)"/>
<path d="M1437.5 480H-1L450.606 327.316C583.358 282.434 682.942 171.354 713.112 34.5076L720.5 1L729.067 38.1964C760.116 173.007 858.62 282.205 989.529 326.935L1437.5 480Z" fill="url(#paint1_radial_2500_2134)"/>
<path d="M1437.5 480H-1L450.606 327.316C583.358 282.434 682.942 171.354 713.112 34.5076L720.5 1L729.067 38.1964C760.116 173.007 858.62 282.205 989.529 326.935L1437.5 480Z" stroke="url(#paint2_linear_2500_2134)"/>
<g filter="url(#filter0_f_2500_2134)">
<path d="M846 307.144L568 321L664.195 217.542L722.649 103C753.947 230.936 846 307.144 846 307.144Z" fill="url(#paint3_linear_2500_2134)"/>
</g>
<defs>
<filter id="filter0_f_2500_2134" x="488" y="23" width="438" height="378" filterUnits="userSpaceOnUse" color-interpolation-filters="sRGB">
<feFlood flood-opacity="0" result="BackgroundImageFix"/>
<feBlend mode="normal" in="SourceGraphic" in2="BackgroundImageFix" result="shape"/>
<feGaussianBlur stdDeviation="40" result="effect1_foregroundBlur_2500_2134"/>
</filter>
<linearGradient id="paint0_linear_2500_2134" x1="721.5" y1="13" x2="716" y2="438" gradientUnits="userSpaceOnUse">
<stop stop-color="white" stop-opacity="0"/>
<stop offset="0.695249" stop-color="#162694"/>
<stop offset="0.995112" stop-color="#162694" stop-opacity="0"/>
</linearGradient>
<radialGradient id="paint1_radial_2500_2134" cx="0" cy="0" r="1" gradientUnits="userSpaceOnUse" gradientTransform="translate(716 76.0001) rotate(93.0775) scale(279.403 453.819)">
<stop stop-color="white" stop-opacity="0.8"/>
<stop offset="1" stop-color="#162694" stop-opacity="0"/>
</radialGradient>
<linearGradient id="paint2_linear_2500_2134" x1="722.001" y1="15.5" x2="730.001" y2="393" gradientUnits="userSpaceOnUse">
<stop offset="0.0732116" stop-color="white" stop-opacity="0"/>
<stop offset="0.479716" stop-color="white"/>
<stop offset="0.906562" stop-color="#999999" stop-opacity="0"/>
</linearGradient>
<linearGradient id="paint3_linear_2500_2134" x1="717.425" y1="196.926" x2="706.978" y2="320.998" gradientUnits="userSpaceOnUse">
<stop stop-color="white"/>
<stop offset="1" stop-color="white" stop-opacity="0.5"/>
</linearGradient>
</defs>
</svg>
