<svg width="315" height="491" viewBox="0 0 315 491" fill="none" xmlns="http://www.w3.org/2000/svg">
<g clip-path="url(#clip0_143_4310)">
<path d="M130.401 53.5999L130.405 53.5934C97.9507 48.5004 69.8986 53.302 50.558 64.8252C31.082 76.4292 20.4362 94.8416 22.9461 116.917C22.9816 117.191 23.0169 117.465 23.0523 117.74C23.9358 124.598 24.8392 131.612 27.8881 139.379C31.0571 147.452 36.5552 156.363 46.8032 166.721C58.4359 178.48 62.265 188.386 62.0594 197.328C61.8547 206.233 57.6422 214.082 53.4461 221.687C53.3309 221.896 53.2158 222.104 53.1008 222.312C48.9999 229.739 45.0208 236.945 44.6022 244.849C44.1746 252.923 47.4682 261.822 58.4982 272.45C61.3595 275.173 66.9817 278.52 74.7456 282.343C82.493 286.158 92.3193 290.421 103.541 294.986C125.984 304.114 153.978 314.435 182.024 324.765L182.958 325.11C210.688 335.324 238.409 345.534 260.784 354.592C272.097 359.172 282.052 363.46 289.953 367.308C297.839 371.147 303.73 374.571 306.877 377.43L306.877 377.431C335.866 403.846 365.837 424.491 397.423 431.251C429.595 437.956 455.933 432.782 473.125 420.713C490.301 408.654 498.39 389.689 494.077 368.641C490.513 351.673 487.706 328.744 484.75 303.247C484.411 300.324 484.071 297.367 483.726 294.381C481.067 271.31 478.21 246.514 474.524 222.319C470.361 194.99 465.145 168.449 457.975 146.044C450.8 123.625 441.69 105.419 429.78 94.6947C414.785 81.1829 392.712 72.5301 366.962 66.998C341.221 61.4678 311.86 59.0675 282.337 58.0211C259.928 57.2269 237.44 57.213 216.38 57.2C209.695 57.1959 203.154 57.1919 196.804 57.163C170.47 57.0433 147.419 56.4966 131.165 53.7301L130.401 53.5999ZM361.897 87.8672C371.919 99.4612 382.018 119.142 391.718 142.968C401.424 166.81 410.752 194.854 419.216 223.213C436.144 279.93 449.628 337.937 455.792 366.168C461.973 394.479 456.393 409.06 446.819 416.778C442.056 420.617 436.353 422.715 430.751 423.987C426.218 425.015 421.72 425.508 417.824 425.935C416.91 426.036 416.029 426.132 415.189 426.231C404.103 427.54 391.453 425.421 371.204 416.037C354.725 408.41 344.647 400.154 338.04 391.156C331.436 382.162 328.331 372.464 325.737 362.022C325.133 359.592 324.557 357.119 323.97 354.604C319.519 335.517 314.488 313.948 292.563 289.227C284.953 280.651 270.029 271.965 251.127 263.045C234.082 255.002 213.873 246.799 193.018 238.335C190.773 237.424 188.521 236.51 186.264 235.592C163.051 226.157 139.383 216.388 118.722 206.157C98.0696 195.931 80.3733 185.222 69.1325 173.889C58.9727 163.645 51.1857 151.787 46.8686 140.09C42.5533 128.399 41.6901 116.825 45.4531 107.191C49.2248 97.5349 57.6094 89.9159 71.5954 86.0925C85.564 82.2739 105.135 82.2336 131.361 87.7024C178.774 97.5891 220.156 86.3245 255.994 76.569C259.637 75.5774 263.222 74.6014 266.751 73.6647C285.851 68.5951 303.321 64.6715 319.166 65.7507C335.046 66.8324 349.281 72.9375 361.897 87.8672Z" stroke="#ADB3E4"/>
<circle cx="74.5" cy="85.5" r="16" fill="#F4448E" fill-opacity="0.1"/>
<circle cx="260.5" cy="268.5" r="12" fill="#F4448E" fill-opacity="0.1"/>
<circle cx="44.5" cy="240.5" r="8" fill="#F4448E" fill-opacity="0.1"/>
</g>
<defs>
<clipPath id="clip0_143_4310">
<rect width="545" height="545" fill="white" transform="matrix(-1 0 0 1 545 -54)"/>
</clipPath>
</defs>
</svg>
